<svg width="1017" height="198" viewBox="0 0 1017 198" fill="none" xmlns="http://www.w3.org/2000/svg">
<path d="M211.4 25.2H238V130.8C238 138.133 239.6 143.267 242.8 146.2C246.133 149 251.067 150.2 257.6 149.8V173.8C250 174.6 243.333 174.133 237.6 172.4C231.867 170.667 227.067 167.933 223.2 164.2C219.333 160.333 216.4 155.6 214.4 150C212.4 144.267 211.4 137.867 211.4 130.8V25.2ZM344.994 122.8C344.994 118.667 344.26 114.8 342.794 111.2C341.46 107.6 339.594 104.467 337.194 101.8C334.794 99.1333 331.994 97.0667 328.794 95.6C325.594 94 322.194 93.2 318.594 93.2C314.994 93.2 311.594 93.9333 308.394 95.4C305.194 96.8667 302.394 98.9333 299.994 101.6C297.594 104.267 295.66 107.4 294.194 111C292.86 114.6 292.194 118.533 292.194 122.8C292.194 126.933 292.86 130.8 294.194 134.4C295.66 137.867 297.594 140.933 299.994 143.6C302.394 146.133 305.194 148.133 308.394 149.6C311.594 151.067 314.994 151.8 318.594 151.8C322.194 151.8 325.594 151.067 328.794 149.6C331.994 148 334.794 145.933 337.194 143.4C339.594 140.733 341.46 137.667 342.794 134.2C344.26 130.6 344.994 126.8 344.994 122.8ZM371.394 174H346.394V163.2C342.527 167.467 337.86 170.733 332.394 173C327.06 175.133 321.26 176.2 314.994 176.2C308.194 176.2 301.794 174.8 295.794 172C289.794 169.2 284.527 165.4 279.994 160.6C275.594 155.667 272.06 150 269.394 143.6C266.86 137.067 265.594 130.067 265.594 122.6C265.594 115.133 266.86 108.133 269.394 101.6C272.06 94.9333 275.727 89.2 280.394 84.4C285.06 79.4667 290.594 75.6 296.994 72.8C303.527 69.8667 310.727 68.4 318.594 68.4C326.327 68.4 333.394 69.8667 339.794 72.8C346.327 75.6 351.927 79.4667 356.594 84.4C361.26 89.2 364.86 94.9333 367.394 101.6C370.06 108.133 371.394 115.133 371.394 122.6V174ZM471.441 122.8C471.441 118.533 470.707 114.6 469.241 111C467.907 107.4 466.041 104.267 463.641 101.6C461.241 98.9333 458.441 96.8667 455.241 95.4C452.041 93.9333 448.641 93.2 445.041 93.2C441.441 93.2 438.041 94 434.841 95.6C431.641 97.0667 428.841 99.1333 426.441 101.8C424.041 104.467 422.107 107.6 420.641 111.2C419.307 114.8 418.641 118.667 418.641 122.8C418.641 126.8 419.307 130.6 420.641 134.2C422.107 137.667 424.041 140.733 426.441 143.4C428.841 145.933 431.641 148 434.841 149.6C438.041 151.067 441.441 151.8 445.041 151.8C448.641 151.8 452.041 151.067 455.241 149.6C458.441 148.133 461.241 146.133 463.641 143.6C466.041 140.933 467.907 137.867 469.241 134.4C470.707 130.8 471.441 126.933 471.441 122.8ZM497.841 122.6C497.841 130.067 496.507 137.067 493.841 143.6C491.307 150.133 487.707 155.867 483.041 160.8C478.374 165.6 472.774 169.4 466.241 172.2C459.841 175 452.774 176.4 445.041 176.4C437.174 176.4 429.974 175 423.441 172.2C417.041 169.4 411.507 165.6 406.841 160.8C402.174 155.867 398.507 150.133 395.841 143.6C393.307 137.067 392.041 130.067 392.041 122.6V25.2H418.641V80.8C422.507 76.6667 426.974 73.6667 432.041 71.8C437.107 69.8 442.641 68.8 448.641 68.8C455.441 68.8 461.841 70.2 467.841 73C473.841 75.8 479.041 79.6667 483.441 84.6C487.841 89.5333 491.307 95.2667 493.841 101.8C496.507 108.333 497.841 115.267 497.841 122.6ZM582.93 100.8C580.53 97.8667 577.596 95.6 574.13 94C570.663 92.4 566.796 91.6 562.53 91.6C558.663 91.6 555.063 92.3333 551.73 93.8C548.396 95.2667 545.463 97.3333 542.93 100C540.53 102.533 538.53 105.6 536.93 109.2C535.463 112.8 534.663 116.8 534.53 121.2L582.93 100.8ZM612.53 141.2C609.463 151.733 603.596 160.267 594.93 166.8C586.396 173.2 575.663 176.4 562.73 176.4C555.396 176.4 548.53 175 542.13 172.2C535.73 169.4 530.13 165.6 525.33 160.8C520.53 155.867 516.73 150.133 513.93 143.6C511.263 137.067 509.93 130.067 509.93 122.6C509.93 115.133 511.263 108.133 513.93 101.6C516.73 94.9333 520.53 89.2 525.33 84.4C530.13 79.4667 535.73 75.6 542.13 72.8C548.53 69.8667 555.396 68.4 562.73 68.4C568.863 68.4 574.73 69.4 580.33 71.4C585.93 73.2667 590.93 76.0667 595.33 79.8C599.863 83.4 603.663 87.8667 606.73 93.2C609.93 98.5333 612.13 104.667 613.33 111.6L540.53 142.2C543.196 145.667 546.396 148.4 550.13 150.4C553.863 152.267 557.996 153.2 562.53 153.2C566.796 153.2 570.93 152.267 574.93 150.4C578.93 148.4 582.063 145.333 584.33 141.2H612.53ZM630.15 25.2H656.75V130.8C656.75 138.133 658.35 143.267 661.55 146.2C664.883 149 669.817 150.2 676.35 149.8V173.8C668.75 174.6 662.083 174.133 656.35 172.4C650.617 170.667 645.817 167.933 641.95 164.2C638.083 160.333 635.15 155.6 633.15 150C631.15 144.267 630.15 137.867 630.15 130.8V25.2ZM736.144 152.2C739.61 152.2 742.877 151.533 745.944 150.2C749.01 148.733 751.677 146.733 753.944 144.2C756.344 141.533 758.21 138.4 759.544 134.8C760.877 131.2 761.544 127.2 761.544 122.8C761.544 118.4 760.877 114.333 759.544 110.6C758.21 106.867 756.344 103.667 753.944 101C751.677 98.3333 749.01 96.2667 745.944 94.8C742.877 93.3333 739.61 92.6 736.144 92.6C732.677 92.6 729.344 93.3333 726.144 94.8C723.077 96.2667 720.41 98.3333 718.144 101C715.877 103.667 714.077 106.867 712.744 110.6C711.41 114.333 710.744 118.4 710.744 122.8C710.744 127.2 711.41 131.2 712.744 134.8C714.077 138.4 715.877 141.533 718.144 144.2C720.41 146.733 723.077 148.733 726.144 150.2C729.344 151.533 732.677 152.2 736.144 152.2ZM736.144 68.4C743.344 68.4 750.077 69.8 756.344 72.6C762.61 75.2667 768.077 79.0667 772.744 84C777.544 88.8 781.277 94.5333 783.944 101.2C786.744 107.733 788.144 114.867 788.144 122.6C788.144 130.333 786.744 137.467 783.944 144C781.277 150.533 777.544 156.2 772.744 161C768.077 165.8 762.61 169.6 756.344 172.4C750.077 175.067 743.344 176.4 736.144 176.4C728.944 176.4 722.21 175.067 715.944 172.4C709.677 169.6 704.21 165.8 699.544 161C694.877 156.2 691.144 150.533 688.344 144C685.677 137.467 684.344 130.333 684.344 122.6C684.344 114.867 685.677 107.733 688.344 101.2C691.144 94.5333 694.877 88.8 699.544 84C704.21 79.0667 709.677 75.2667 715.944 72.6C722.21 69.8 728.944 68.4 736.144 68.4ZM861.764 174H833.364L794.364 71H821.964L847.564 147.8L873.364 71H900.564L861.764 174ZM979.805 100.8C977.405 97.8667 974.471 95.6 971.005 94C967.538 92.4 963.671 91.6 959.405 91.6C955.538 91.6 951.938 92.3333 948.605 93.8C945.271 95.2667 942.338 97.3333 939.805 100C937.405 102.533 935.405 105.6 933.805 109.2C932.338 112.8 931.538 116.8 931.405 121.2L979.805 100.8ZM1009.4 141.2C1006.34 151.733 1000.47 160.267 991.805 166.8C983.271 173.2 972.538 176.4 959.605 176.4C952.271 176.4 945.405 175 939.005 172.2C932.605 169.4 927.005 165.6 922.205 160.8C917.405 155.867 913.605 150.133 910.805 143.6C908.138 137.067 906.805 130.067 906.805 122.6C906.805 115.133 908.138 108.133 910.805 101.6C913.605 94.9333 917.405 89.2 922.205 84.4C927.005 79.4667 932.605 75.6 939.005 72.8C945.405 69.8667 952.271 68.4 959.605 68.4C965.738 68.4 971.605 69.4 977.205 71.4C982.805 73.2667 987.805 76.0667 992.205 79.8C996.738 83.4 1000.54 87.8667 1003.6 93.2C1006.8 98.5333 1009 104.667 1010.2 111.6L937.405 142.2C940.071 145.667 943.271 148.4 947.005 150.4C950.738 152.267 954.871 153.2 959.405 153.2C963.671 153.2 967.805 152.267 971.805 150.4C975.805 148.4 978.938 145.333 981.205 141.2H1009.4Z" fill="#F06F5C"/>
<path d="M123.316 41.5424C108.426 21.5026 91.1155 9.19416 82.7964 3.2793C81.6843 2.48846 80.5881 1.6748 79.4742 0.887826C78.5794 0.25554 77.6058 -0.170624 76.4922 0.0664347C74.6064 0.467849 73.3989 2.50779 73.9746 4.35167C82.175 30.5971 77.2632 56.0011 58.4975 83.9168C53.1426 72.8079 50.3331 62.4423 50.3331 53.6912C50.3331 51.6741 48.4848 50.0765 46.4877 50.3712C45.5114 50.5155 44.8664 51.0994 44.1476 51.7131C43.3166 52.422 42.4606 53.1018 41.6095 53.7863C30.2295 62.9442 0 87.2692 0 127.524C0 146.198 7.95449 163.924 22.3976 177.435C36.3671 190.504 55.1107 198 73.8223 198C98.3469 198 118.457 190.863 131.979 177.36C144.423 164.934 151 147.701 151 127.524C151 95.1943 141.686 66.2661 123.316 41.5424Z" fill="#F06F5C"/>
</svg>
